<?xml version="1.0" encoding="UTF-8" standalone="no"?>
<!-- Uploaded to: SVG Repo, www.svgrepo.com, Generator: SVG Repo Mixer Tools -->

<svg
   width="1000"
   height="1000"
   viewBox="0 0 640 640"
   version="1.1"
   id="svg4"
   sodipodi:docname="logo.svg"
   inkscape:version="1.2.2 (b0a8486541, 2022-12-01)"
   xmlns:inkscape="http://www.inkscape.org/namespaces/inkscape"
   xmlns:sodipodi="http://sodipodi.sourceforge.net/DTD/sodipodi-0.dtd"
   xmlns="http://www.w3.org/2000/svg"
   xmlns:svg="http://www.w3.org/2000/svg">
  <defs
     id="defs8" />
  <sodipodi:namedview
     id="namedview6"
     pagecolor="#ffffff"
     bordercolor="#000000"
     borderopacity="0.25"
     inkscape:showpageshadow="2"
     inkscape:pageopacity="0.0"
     inkscape:pagecheckerboard="0"
     inkscape:deskcolor="#d1d1d1"
     showgrid="false"
     inkscape:zoom="0.295"
     inkscape:cx="422.0339"
     inkscape:cy="411.86441"
     inkscape:window-width="1862"
     inkscape:window-height="1131"
     inkscape:window-x="58"
     inkscape:window-y="32"
     inkscape:window-maximized="1"
     inkscape:current-layer="svg4" />
  <path
     fill="#000000"
     d="m 401.62599,47.985262 c -2.843,-0.035 -5.859,0.197 -9.075,0.73 -81.664,13.54 -38.657,142.294998 -36.095,217.396998 -84.163,-16.327 -168.007,121.048 -289.117998,152.787 58.085998,52.473 206.049998,89.6 331.738998,11.85 39.804,-24.622 45.26,-92.014 34.343,-165.049 -6.703,-44.845 -71.755,-133.176 -10.269,-141.266 l 0.611,-0.504 c 12.884,-10.608 16.606,-23.842 22.522,-37.698998 l 1.699,-3.976 c -11.688,-16.016 -23.17,-33.986 -46.357,-34.27 z m 5.08,19.625 a 9,9 0 0 1 9,9 9,9 0 0 1 -9,9 9,9 0 0 1 -9,-9 9,9 0 0 1 9,-9 z m 52.703,34.171998 c -3.28,8.167 -7.411,17.45 -14.612,26.293 21.035,7.63 41.929,3.078 63.079,-0.863 -15.515,-9.272 -32.003,-18.195 -48.467,-25.43 z m -89.608,181.053 c 19.109,25.924 21.374,53.965 11.637,78.183 -9.737,24.219 -30.345,44.797 -55.67,60.49 -50.65,31.389 -121.288,44.45 -170.553,17.11 l 8.735,-15.738 c 40.364,22.4 106.342,11.833 152.338,-16.67 22.997,-14.252 40.72,-32.684 48.449,-51.906 7.729,-19.223 6.596,-39.053 -9.426,-60.79 l 14.49,-10.68 z m -64.914,203.449 a 332.68,332.68 0 0 1 -19.095,3.232 l -3.508,16.426 h -13.084 l 3.508,-14.842 a 400.208,400.208 0 0 1 -18.852,1.506 l -7.408,31.336 h 95.79 v -18 h -41.548 z"
     id="path2"
     style="fill:#220055" />
  <path
     fill="#000000"
     d="m 563.16323,374.87986 c -1.4215,-0.0175 -2.9295,0.0985 -4.5375,0.365 -40.832,6.77 -19.3285,71.1475 -18.0475,108.6985 -42.0815,-8.1635 -84.0035,60.524 -144.559,76.3935 29.043,26.2365 103.025,44.8 165.8695,5.925 19.902,-12.311 22.63,-46.007 17.1715,-82.5245 -3.3515,-22.4225 -35.8775,-66.588 -5.1345,-70.633 l 0.3055,-0.252 c 6.442,-5.304 8.303,-11.921 11.261,-18.8495 l 0.8495,-1.988 c -5.844,-8.008 -11.585,-16.993 -23.1785,-17.135 z m 2.54,9.8125 a 4.5,4.5 0 0 1 4.5,4.5 4.5,4.5 0 0 1 -4.5,4.5 4.5,4.5 0 0 1 -4.5,-4.5 4.5,4.5 0 0 1 4.5,-4.5 z m 26.3515,17.086 c -1.64,4.0835 -3.7055,8.725 -7.306,13.1465 10.5175,3.815 20.9645,1.539 31.5395,-0.4315 -7.7575,-4.636 -16.0015,-9.0975 -24.2335,-12.715 z m -44.804,90.5265 c 9.5545,12.962 10.687,26.9825 5.8185,39.0915 -4.8685,12.1095 -15.1725,22.3985 -27.835,30.245 -25.325,15.6945 -60.644,22.225 -85.2765,8.555 l 4.3675,-7.869 c 20.182,11.2 53.171,5.9165 76.169,-8.335 11.4985,-7.126 20.36,-16.342 24.2245,-25.953 3.8645,-9.6115 3.298,-19.5265 -4.713,-30.395 l 7.245,-5.34 z m -32.457,101.7245 a 166.34,166.34 0 0 1 -9.5475,1.616 l -1.754,8.213 h -6.542 l 1.754,-7.421 a 200.104,200.104 0 0 1 -9.426,0.753 l -3.704,15.668 h 47.895 v -9 h -20.774 z"
     id="path2-3"
     style="fill:#220055;stroke-width:0.5" />
  <path
     fill="#000000"
     d="m 188.5152,21.542067 c -1.4215,-0.0175 -2.9295,0.0985 -4.5375,0.365 -40.832,6.77 -19.3285,71.1475 -18.0475,108.698503 -42.0815,-8.1635 -84.003503,60.524 -144.559003,76.3935 29.043,26.2365 103.025003,44.8 165.869503,5.925 19.902,-12.311 22.63,-46.007 17.1715,-82.5245 -3.3515,-22.4225 -35.8775,-66.588003 -5.1345,-70.633003 l 0.3055,-0.252 c 6.442,-5.304 8.303,-11.921 11.261,-18.8495 l 0.8495,-1.988 c -5.844,-8.008 -11.585,-16.993 -23.1785,-17.135 z m 2.54,9.8125 a 4.5,4.5 0 0 1 4.5,4.5 4.5,4.5 0 0 1 -4.5,4.5 4.5,4.5 0 0 1 -4.5,-4.5 4.5,4.5 0 0 1 4.5,-4.5 z m 26.3515,17.086 c -1.64,4.0835 -3.7055,8.725 -7.306,13.1465 10.5175,3.815 20.9645,1.539 31.5395,-0.4315 -7.7575,-4.636 -16.0015,-9.0975 -24.2335,-12.715 z m -44.804,90.526503 c 9.5545,12.962 10.687,26.9825 5.8185,39.0915 -4.8685,12.1095 -15.1725,22.3985 -27.835,30.245 -25.325,15.6945 -60.644003,22.225 -85.276503,8.555 l 4.3675,-7.869 c 20.182,11.2 53.171003,5.9165 76.169003,-8.335 11.4985,-7.126 20.36,-16.342 24.2245,-25.953 3.8645,-9.6115 3.298,-19.5265 -4.713,-30.395 l 7.245,-5.34 z m -32.457,101.7245 a 166.34,166.34 0 0 1 -9.5475,1.616 l -1.754,8.213 h -6.542 l 1.754,-7.421 a 200.104,200.104 0 0 1 -9.426,0.753 l -3.704,15.668 h 47.895 v -9 h -20.774 z"
     id="path2-3-6"
     style="fill:#220055;stroke-width:0.5" />
  <path
     fill="#000000"
     d="m 584.41577,160.33074 c -0.71075,-0.009 -1.46475,0.0493 -2.26875,0.1825 -20.416,3.385 -9.66425,35.57376 -9.02375,54.34926 -21.04075,-4.08175 -42.00175,30.262 -72.2795,38.19675 14.5215,13.11825 51.5125,22.4 82.93475,2.9625 9.951,-6.1555 11.315,-23.0035 8.58575,-41.26225 -1.67575,-11.21125 -17.93875,-33.29401 -2.56725,-35.31651 l 0.15275,-0.126 c 3.221,-2.652 4.1515,-5.9605 5.6305,-9.42475 l 0.42475,-0.994 c -2.922,-4.004 -5.7925,-8.4965 -11.58925,-8.5675 z m 1.27,4.90625 a 2.25,2.25 0 0 1 2.25,2.25 2.25,2.25 0 0 1 -2.25,2.25 2.25,2.25 0 0 1 -2.25,-2.25 2.25,2.25 0 0 1 2.25,-2.25 z m 13.17575,8.543 c -0.82,2.04175 -1.85275,4.3625 -3.653,6.57325 5.25875,1.9075 10.48225,0.7695 15.76975,-0.21575 -3.87875,-2.318 -8.00075,-4.54875 -12.11675,-6.3575 z m -22.402,45.26326 c 4.77725,6.481 5.3435,13.49125 2.90925,19.54575 -2.43425,6.05475 -7.58625,11.19925 -13.9175,15.1225 -12.6625,7.84725 -30.322,11.1125 -42.63825,4.2775 l 2.18375,-3.9345 c 10.091,5.6 26.5855,2.95825 38.0845,-4.1675 5.74925,-3.563 10.18,-8.171 12.11225,-12.9765 1.93225,-4.80575 1.649,-9.76325 -2.3565,-15.1975 l 3.6225,-2.67 z m -16.2285,50.86225 a 83.17,83.17 0 0 1 -4.77375,0.808 l -0.877,4.1065 h -3.271 l 0.877,-3.7105 a 100.052,100.052 0 0 1 -4.713,0.3765 l -1.852,7.834 h 23.9475 v -4.5 h -10.387 z"
     id="path2-3-3"
     style="fill:#220055;stroke-width:0.25" />
  <path
     fill="#000000"
     d="m 126.53984,493.76906 c -0.71075,-0.009 -1.46475,0.0493 -2.26875,0.1825 -20.416,3.385 -9.66425,35.57376 -9.02375,54.34926 -21.040748,-4.08175 -42.001748,30.262 -72.279498,38.19675 14.5215,13.11825 51.5125,22.4 82.934748,2.9625 9.951,-6.1555 11.315,-23.0035 8.58575,-41.26225 -1.67575,-11.21125 -17.93875,-33.29401 -2.56725,-35.31651 l 0.15275,-0.126 c 3.221,-2.652 4.1515,-5.9605 5.6305,-9.42475 l 0.42475,-0.994 c -2.922,-4.004 -5.7925,-8.4965 -11.58925,-8.5675 z m 1.27,4.90625 a 2.25,2.25 0 0 1 2.25,2.25 2.25,2.25 0 0 1 -2.25,2.25 2.25,2.25 0 0 1 -2.25,-2.25 2.25,2.25 0 0 1 2.25,-2.25 z m 13.17575,8.543 c -0.82,2.04175 -1.85275,4.3625 -3.653,6.57325 5.25875,1.9075 10.48225,0.7695 15.76975,-0.21575 -3.87875,-2.318 -8.00075,-4.54875 -12.11675,-6.3575 z m -22.402,45.26326 c 4.77725,6.481 5.3435,13.49125 2.90925,19.54575 -2.43425,6.05475 -7.58625,11.19925 -13.9175,15.1225 -12.662498,7.84725 -30.321998,11.1125 -42.638248,4.2775 l 2.18375,-3.9345 c 10.091,5.6 26.5855,2.95825 38.084498,-4.1675 5.74925,-3.563 10.18,-8.171 12.11225,-12.9765 1.93225,-4.80575 1.649,-9.76325 -2.3565,-15.1975 l 3.6225,-2.67 z m -16.2285,50.86225 a 83.17,83.17 0 0 1 -4.773748,0.808 l -0.877,4.1065 h -3.271 l 0.877,-3.7105 a 100.052,100.052 0 0 1 -4.713,0.3765 l -1.852,7.834 h 23.947498 v -4.5 h -10.387 z"
     id="path2-3-3-6"
     style="fill:#220055;stroke-width:0.25" />
</svg>
